<svg width="562.8px" height="195.2px" xmlns="http://www.w3.org/2000/svg" viewBox="-31.396893310546886 -22.60000915527344 562.7937866210938 195.20001831054688" style="background: rgba(0, 0, 0, 0)" preserveAspectRatio="xMidYMid"><defs><filter id="editing-jagged" x="-100%" y="-100%" width="300%" height="300%"><feTurbulence result="turb" baseFrequency="0.03" numOctaves="1" seed="1"></feTurbulence><feDisplacementMap in="SourceGraphic" in2="turb" scale="9.5"></feDisplacementMap></filter></defs><g filter="url(#editing-jagged)"><g transform="matrix(1.3,0,0,1.6,2.3,230.1)"><path d="M -4.4 -79.9 L -5.7 -114.2 L -5.7 -114.2 Q -4.7 -114.2 -3.9 -114.3 L -3.9 -114.3 L -3.9 -114.3 Q -3.2 -114.3 -2.7 -113.4 L -2.7 -113.4 L -2.7 -113.4 Q -2.4 -109.4 -2.1 -105.3 L -2.1 -105.3 L -2.1 -105.3 Q -1.7 -101.2 -1.4 -97.1 L -1.4 -97.1 L -1.4 -97.1 Q -1 -93 -0.9 -88.8 L -0.9 -88.8 L -0.9 -88.8 Q -0.7 -84.6 -0.8 -80.7 L -0.8 -80.7 L -0.8 -80.7 Q -0.8 -80.2 -1.1 -80 L -1.1 -80 L -1.1 -80 Q -1.4 -79.9 -1.8 -79.9 L -1.8 -79.9 L -1.8 -79.9 Q -2.3 -80 -3 -80 L -3 -80 L -3 -80 Q -3.6 -80.1 -4.4 -79.9 L -4.4 -79.9 Z M -10.8 -129.9 L -10.8 -129.9 L -10.8 -129.9 Q -10.8 -130.5 -10.8 -131.3 L -10.8 -131.3 L -10.8 -131.3 Q -10.7 -132 -10.4 -132.6 L -10.4 -132.6 L -10.4 -132.6 Q -10.1 -133.2 -9.6 -133.7 L -9.6 -133.7 L -9.6 -133.7 Q -9.1 -134.1 -8.4 -134.1 L -8.4 -134.1 L -8.4 -134.1 Q -7.3 -134.1 -6.3 -134 L -6.3 -134 L -6.3 -134 Q -5.2 -133.9 -4.3 -133.6 L -4.3 -133.6 L -4.3 -133.6 Q -3.3 -133.3 -2.7 -132.7 L -2.7 -132.7 L -2.7 -132.7 Q -2.1 -132 -2.1 -130.8 L -2.1 -130.8 L -2.1 -130.8 Q -2.1 -128.7 -3.6 -127 L -3.6 -127 L -3.6 -127 Q -5.2 -125.4 -7.5 -125.4 L -7.5 -125.4 L -7.5 -125.4 Q -9.3 -125.4 -10.1 -126.8 L -10.1 -126.8 L -10.1 -126.8 Q -10.8 -128.1 -10.8 -129.9 Z M -5.7 -129.5 L -5.7 -129.5 L -5.7 -129.5 Q -6 -129.5 -6 -129 L -6 -129 L -6 -129 Q -6 -128.6 -5.7 -128.6 L -5.7 -128.6 L -5.7 -128.6 Q -5.4 -128.6 -5.4 -129 L -5.4 -129 L -5.4 -129 Q -5.4 -129.5 -5.7 -129.5 Z M 2.8 -114.3 L 2.8 -114.3 L 2.8 -114.3 Q 3.8 -114.3 5.1 -113.8 L 5.1 -113.8 L 5.1 -113.8 Q 6.3 -113.3 6.8 -111.7 L 6.8 -111.7 L 6.8 -111.7 Q 7.5 -114.7 9 -116.5 L 9 -116.5 L 9 -116.5 Q 10.4 -118.4 12.3 -119.1 L 12.3 -119.1 L 12.3 -119.1 Q 14.2 -119.8 16.3 -119.6 L 16.3 -119.6 L 16.3 -119.6 Q 18.3 -119.4 20.1 -118.3 L 20.1 -118.3 L 20.1 -118.3 Q 21.9 -117.2 23.3 -115.6 L 23.3 -115.6 L 23.3 -115.6 Q 24.7 -113.9 25.2 -111.7 L 25.2 -111.7 L 25.2 -111.7 Q 26.2 -114.4 27.8 -116.8 L 27.8 -116.8 L 27.8 -116.8 Q 29.4 -119.1 31.4 -120.7 L 31.4 -120.7 L 31.4 -120.7 Q 33.4 -122.3 35.5 -122.9 L 35.5 -122.9 L 35.5 -122.9 Q 37.7 -123.5 39.6 -122.8 L 39.6 -122.8 L 39.6 -122.8 Q 41.5 -122.2 42.9 -120 L 42.9 -120 L 42.9 -120 Q 44.4 -117.9 45 -113.8 L 45 -113.8 L 45 -113.8 Q 45.1 -112.7 45.4 -110.4 L 45.4 -110.4 L 45.4 -110.4 Q 45.7 -108.2 46 -105.4 L 46 -105.4 L 46 -105.4 Q 46.3 -102.6 46.7 -99.4 L 46.7 -99.4 L 46.7 -99.4 Q 47.1 -96.3 47.4 -93.5 L 47.4 -93.5 L 47.4 -93.5 Q 47.7 -90.7 48 -88.5 L 48 -88.5 L 48 -88.5 Q 48.2 -86.2 48.4 -85.2 L 48.4 -85.2 L 48.4 -85.2 Q 48.4 -84.3 48.3 -83.2 L 48.3 -83.2 L 48.3 -83.2 Q 48.2 -82.2 47.9 -81.4 L 47.9 -81.4 L 47.9 -81.4 Q 47.6 -80.7 46.9 -80.5 L 46.9 -80.5 L 46.9 -80.5 Q 46.3 -80.2 45 -81.2 L 45 -81.2 L 45 -81.2 Q 45 -82.3 44.7 -84.6 L 44.7 -84.6 L 44.7 -84.6 Q 44.4 -87 44.2 -90.1 L 44.2 -90.1 L 44.2 -90.1 Q 43.9 -93.2 43.5 -96.7 L 43.5 -96.7 L 43.5 -96.7 Q 43.1 -100.2 42.7 -103.3 L 42.7 -103.3 L 42.7 -103.3 Q 42.3 -106.3 42.1 -108.7 L 42.1 -108.7 L 42.1 -108.7 Q 41.8 -111.1 41.5 -112.1 L 41.5 -112.1 L 41.5 -112.1 Q 40.2 -116.1 38.8 -117.7 L 38.8 -117.7 L 38.8 -117.7 Q 37.3 -119.3 35.9 -119.1 L 35.9 -119.1 L 35.9 -119.1 Q 34.4 -118.9 33.1 -117.2 L 33.1 -117.2 L 33.1 -117.2 Q 31.8 -115.6 30.7 -113 L 30.7 -113 L 30.7 -113 Q 29.7 -110.5 28.8 -107.4 L 28.8 -107.4 L 28.8 -107.4 Q 27.8 -104.2 27.3 -101.2 L 27.3 -101.2 L 27.3 -101.2 Q 26.9 -98.1 26.7 -95.4 L 26.7 -95.4 L 26.7 -95.4 Q 26.6 -92.6 27 -90.9 L 27 -90.9 L 23.6 -90.2 L 23.6 -90.2 Q 23.9 -98.6 23 -104 L 23 -104 L 23 -104 Q 22.2 -109.4 20.8 -112.3 L 20.8 -112.3 L 20.8 -112.3 Q 19.3 -115.2 17.5 -115.8 L 17.5 -115.8 L 17.5 -115.8 Q 15.6 -116.4 13.8 -115 L 13.8 -115 L 13.8 -115 Q 12 -113.7 10.5 -110.7 L 10.5 -110.7 L 10.5 -110.7 Q 9 -107.6 8.3 -103.2 L 8.3 -103.2 L 8.3 -103.2 Q 7.5 -98.9 7.7 -93.4 L 7.7 -93.4 L 7.7 -93.4 Q 7.9 -88 9.5 -81.7 L 9.5 -81.7 L 6.2 -81.7 L 6.2 -81.7 Q 6.2 -81.7 6 -83.4 L 6 -83.4 L 6 -83.4 Q 5.8 -85.1 5.5 -87.7 L 5.5 -87.7 L 5.5 -87.7 Q 5.2 -90.3 4.8 -93.6 L 4.8 -93.6 L 4.8 -93.6 Q 4.4 -96.9 4.1 -100.2 L 4.1 -100.2 L 4.1 -100.2 Q 3.7 -103.6 3.4 -106.7 L 3.4 -106.7 L 3.4 -106.7 Q 3 -109.9 2.8 -112.1 L 2.8 -112.1 L 2.8 -112.1 Q 2.8 -112.3 2.8 -113.2 L 2.8 -113.2 L 2.8 -113.2 Q 2.8 -114.2 2.8 -114.3 Z M 52.2 -87.6 L 52.2 -87.6 L 52.2 -87.6 Q 52.2 -92.6 54.9 -94.9 L 54.9 -94.9 L 54.9 -94.9 Q 57.7 -97.2 62.2 -97.2 L 62.2 -97.2 L 62.2 -97.2 Q 64 -97.2 65.5 -97.1 L 65.5 -97.1 L 65.5 -97.1 Q 67 -97 68.4 -96.7 L 68.4 -96.7 L 68.4 -96.7 Q 69.8 -96.3 71.2 -95.6 L 71.2 -95.6 L 71.2 -95.6 Q 72.6 -94.9 74.1 -93.6 L 74.1 -93.6 L 74.1 -93.6 Q 74.1 -93.9 74.1 -94.7 L 74.1 -94.7 L 74.1 -94.7 Q 74.1 -95.5 74.1 -96.5 L 74.1 -96.5 L 74.1 -96.5 Q 74.1 -97.5 74.1 -98.3 L 74.1 -98.3 L 74.1 -98.3 Q 74.1 -99.1 74.1 -99.5 L 74.1 -99.5 L 74.1 -99.5 Q 74.1 -101.1 74.1 -103.6 L 74.1 -103.6 L 74.1 -103.6 Q 74.1 -106.1 73.7 -108.7 L 73.7 -108.7 L 73.7 -108.7 Q 73.3 -111.4 72.1 -113.7 L 72.1 -113.7 L 72.1 -113.7 Q 70.9 -116.1 68.3 -117.3 L 68.3 -117.3 L 68.3 -117.3 Q 66.4 -117.3 64.8 -116.7 L 64.8 -116.7 L 64.8 -116.7 Q 63.2 -116.1 61.7 -115.4 L 61.7 -115.4 L 61.7 -115.4 Q 60.1 -114.7 58.5 -114.1 L 58.5 -114.1 L 58.5 -114.1 Q 56.9 -113.6 55.1 -113.6 L 55.1 -113.6 L 55.1 -113.6 Q 55.1 -115.7 56.4 -117.2 L 56.4 -117.2 L 56.4 -117.2 Q 57.8 -118.6 59.7 -119.4 L 59.7 -119.4 L 59.7 -119.4 Q 61.7 -120.2 63.8 -120.5 L 63.8 -120.5 L 63.8 -120.5 Q 65.9 -120.8 67.5 -120.8 L 67.5 -120.8 L 67.5 -120.8 Q 69 -120.5 70.4 -120.1 L 70.4 -120.1 L 70.4 -120.1 Q 71.8 -119.8 73 -118.7 L 73 -118.7 L 73 -118.7 Q 74.1 -117.7 75.2 -115.5 L 75.2 -115.5 L 75.2 -115.5 Q 76.2 -113.4 76.9 -109.5 L 76.9 -109.5 L 76.9 -109.5 Q 77.7 -105.6 78.2 -99.7 L 78.2 -99.7 L 78.2 -99.7 Q 78.8 -93.8 79.2 -85.2 L 79.2 -85.2 L 79.2 -85.2 Q 79.3 -84 78.4 -83.2 L 78.4 -83.2 L 78.4 -83.2 Q 77.5 -82.4 75.9 -81.8 L 75.9 -81.8 L 75.9 -81.8 Q 74.3 -81.2 72.3 -80.8 L 72.3 -80.8 L 72.3 -80.8 Q 70.4 -80.4 68.3 -80.2 L 68.3 -80.2 L 68.3 -80.2 Q 66.3 -80.1 64.5 -80 L 64.5 -80 L 64.5 -80 Q 62.6 -79.9 61.4 -79.9 L 61.4 -79.9 L 61.4 -79.9 Q 59.8 -79.9 58.2 -80.4 L 58.2 -80.4 L 58.2 -80.4 Q 56.6 -80.9 55.2 -82 L 55.2 -82 L 55.2 -82 Q 53.8 -83 53 -84.4 L 53 -84.4 L 53 -84.4 Q 52.2 -85.9 52.2 -87.6 Z M 63.6 -93.8 L 63.6 -93.8 L 63.6 -93.8 Q 59.2 -92.5 57.4 -90.8 L 57.4 -90.8 L 57.4 -90.8 Q 55.7 -89.1 55.9 -87.5 L 55.9 -87.5 L 55.9 -87.5 Q 56.1 -86 58 -84.7 L 58 -84.7 L 58 -84.7 Q 59.8 -83.4 62.5 -83 L 62.5 -83 L 62.5 -83 Q 65.1 -82.6 68.2 -83.4 L 68.2 -83.4 L 68.2 -83.4 Q 71.2 -84.3 74.1 -86.7 L 74.1 -86.7 L 74.1 -86.7 Q 73 -89.3 71.9 -90.7 L 71.9 -90.7 L 71.9 -90.7 Q 70.9 -92 69.7 -92.7 L 69.7 -92.7 L 69.7 -92.7 Q 68.4 -93.4 66.9 -93.6 L 66.9 -93.6 L 66.9 -93.6 Q 65.4 -93.8 63.6 -93.8 Z M 70.2 -59.2 L 70.2 -59.2 L 70.2 -59.2 Q 70.2 -61.6 71 -62.8 L 71 -62.8 L 71 -62.8 Q 71.8 -64.1 74.7 -64.1 L 74.7 -64.1 L 74.7 -64.1 Q 74.4 -62.8 74 -61.6 L 74 -61.6 L 74 -61.6 Q 73.6 -60.4 73.3 -59.3 L 73.3 -59.3 L 73.3 -59.3 Q 73 -58.3 73 -57.7 L 73 -57.7 L 73 -57.7 Q 73.1 -57 73.7 -57.2 L 73.7 -57.2 L 73.7 -57.2 Q 76.5 -55.4 79.9 -54.6 L 79.9 -54.6 L 79.9 -54.6 Q 83.2 -53.8 86.5 -53.8 L 86.5 -53.8 L 86.5 -53.8 Q 91.4 -53.9 94.9 -55.8 L 94.9 -55.8 L 94.9 -55.8 Q 98.5 -57.7 100.8 -60.8 L 100.8 -60.8 L 100.8 -60.8 Q 103.2 -63.9 104.4 -67.9 L 104.4 -67.9 L 104.4 -67.9 Q 105.7 -71.9 106 -76.2 L 106 -76.2 L 106 -76.2 Q 106.3 -80.4 105.8 -84.7 L 105.8 -84.7 L 105.8 -84.7 Q 105.3 -89 104.1 -92.6 L 104.1 -92.6 L 104.1 -92.6 Q 102.6 -91 101.1 -89.1 L 101.1 -89.1 L 101.1 -89.1 Q 99.5 -87.3 97.8 -85.8 L 97.8 -85.8 L 97.8 -85.8 Q 96 -84.4 94.1 -83.4 L 94.1 -83.4 L 94.1 -83.4 Q 92.1 -82.4 89.6 -82.4 L 89.6 -82.4 L 89.6 -82.4 Q 87.1 -82.4 85.8 -83.3 L 85.8 -83.3 L 85.8 -83.3 Q 84.5 -84.2 84.1 -85.7 L 84.1 -85.7 L 84.1 -85.7 Q 83.6 -87.3 83.7 -89.3 L 83.7 -89.3 L 83.7 -89.3 Q 83.7 -91.3 83.7 -93.6 L 83.7 -93.6 L 83.7 -93.6 Q 83.7 -95.7 83.9 -98.3 L 83.9 -98.3 L 83.9 -98.3 Q 84 -101 84.5 -103.7 L 84.5 -103.7 L 84.5 -103.7 Q 85 -106.3 85.8 -108.9 L 85.8 -108.9 L 85.8 -108.9 Q 86.6 -111.5 88 -113.6 L 88 -113.6 L 88 -113.6 Q 89.4 -115.7 91.5 -116.9 L 91.5 -116.9 L 91.5 -116.9 Q 93.7 -118.1 96.6 -118.1 L 96.6 -118.1 L 96.6 -118.1 Q 98.4 -118.1 100.1 -117.8 L 100.1 -117.8 L 100.1 -117.8 Q 101.8 -117.5 103.3 -116.7 L 103.3 -116.7 L 103.3 -116.7 Q 104.7 -115.9 105.8 -114.6 L 105.8 -114.6 L 105.8 -114.6 Q 106.8 -113.3 107.5 -111.3 L 107.5 -111.3 L 107.5 -111.3 Q 107.8 -107.3 108.3 -102.7 L 108.3 -102.7 L 108.3 -102.7 Q 108.9 -98.1 109.2 -93.1 L 109.2 -93.1 L 109.2 -93.1 Q 109.6 -88.2 109.6 -83.1 L 109.6 -83.1 L 109.6 -83.1 Q 109.6 -78.1 108.9 -73.5 L 108.9 -73.5 L 108.9 -73.5 Q 108.2 -68.8 106.7 -64.7 L 106.7 -64.7 L 106.7 -64.7 Q 105.2 -60.6 102.4 -57.5 L 102.4 -57.5 L 102.4 -57.5 Q 99.6 -54.4 95.5 -52.5 L 95.5 -52.5 L 95.5 -52.5 Q 91.4 -50.6 85.6 -50.4 L 85.6 -50.4 L 85.6 -50.4 Q 83.1 -50.4 80.4 -50.8 L 80.4 -50.8 L 80.4 -50.8 Q 77.7 -51.1 75.4 -52 L 75.4 -52 L 75.4 -52 Q 73.1 -52.9 71.6 -54.6 L 71.6 -54.6 L 71.6 -54.6 Q 70.2 -56.3 70.2 -59.2 Z M 87.1 -93.6 L 87.1 -93.6 L 87.1 -93.6 Q 87.1 -92.6 87 -91.4 L 87 -91.4 L 87 -91.4 Q 86.9 -90.2 87.1 -88.9 L 87.1 -88.9 L 87.1 -88.9 Q 87.2 -87.7 87.8 -86.8 L 87.8 -86.8 L 87.8 -86.8 Q 88.4 -86 89.7 -85.9 L 89.7 -85.9 L 89.7 -85.9 Q 91.8 -85.9 93.6 -86.8 L 93.6 -86.8 L 93.6 -86.8 Q 95.4 -87.8 96.9 -89.5 L 96.9 -89.5 L 96.9 -89.5 Q 98.3 -91.1 99.4 -93.2 L 99.4 -93.2 L 99.4 -93.2 Q 100.5 -95.3 101.3 -97.5 L 101.3 -97.5 L 101.3 -97.5 Q 102 -99.7 102.4 -101.7 L 102.4 -101.7 L 102.4 -101.7 Q 102.8 -103.8 102.8 -105.4 L 102.8 -105.4 L 102.8 -105.4 Q 103.1 -107 102.8 -108.7 L 102.8 -108.7 L 102.8 -108.7 Q 102.6 -110.4 101.8 -111.7 L 101.8 -111.7 L 101.8 -111.7 Q 101 -113 99.7 -113.9 L 99.7 -113.9 L 99.7 -113.9 Q 98.4 -114.7 96.6 -114.7 L 96.6 -114.7 L 96.6 -114.7 Q 94.4 -114.7 92.9 -113.5 L 92.9 -113.5 L 92.9 -113.5 Q 91.3 -112.3 90.2 -110.5 L 90.2 -110.5 L 90.2 -110.5 Q 89.2 -108.6 88.6 -106.3 L 88.6 -106.3 L 88.6 -106.3 Q 87.9 -104 87.6 -101.6 L 87.6 -101.6 L 87.6 -101.6 Q 87.3 -99.3 87.2 -97.2 L 87.2 -97.2 L 87.2 -97.2 Q 87.1 -95 87.1 -93.6 Z M 114.4 -100.7 L 114.4 -100.7 L 114.4 -100.7 Q 114.4 -103.4 115.5 -106.6 L 115.5 -106.6 L 115.5 -106.6 Q 116.7 -109.8 118.7 -112.5 L 118.7 -112.5 L 118.7 -112.5 Q 120.6 -115.3 123.1 -117.2 L 123.1 -117.2 L 123.1 -117.2 Q 125.7 -119.1 128.4 -119.1 L 128.4 -119.1 L 128.4 -119.1 Q 129.9 -119.1 131.3 -118.5 L 131.3 -118.5 L 131.3 -118.5 Q 132.8 -117.9 134.1 -116.8 L 134.1 -116.8 L 134.1 -116.8 Q 135.5 -115.8 136.6 -114.6 L 136.6 -114.6 L 136.6 -114.6 Q 137.7 -113.3 138.3 -111.9 L 138.3 -111.9 L 138.3 -111.9 Q 138.9 -110.5 139 -109.2 L 139 -109.2 L 139 -109.2 Q 139 -107.8 138.2 -106.9 L 138.2 -106.9 L 119.7 -103.4 L 119.7 -103.4 Q 119.3 -103.4 119.1 -102.6 L 119.1 -102.6 L 119.1 -102.6 Q 118.8 -101.9 118.6 -100.7 L 118.6 -100.7 L 118.6 -100.7 Q 118.4 -99.6 118.3 -98.2 L 118.3 -98.2 L 118.3 -98.2 Q 118.2 -96.9 118.1 -95.6 L 118.1 -95.6 L 118.1 -95.6 Q 118 -94.3 118 -93.3 L 118 -93.3 L 118 -93.3 Q 118 -92.3 118 -91.8 L 118 -91.8 L 118 -91.8 Q 118 -89.3 119.2 -87.8 L 119.2 -87.8 L 119.2 -87.8 Q 120.4 -86.2 122.2 -85.4 L 122.2 -85.4 L 122.2 -85.4 Q 124.1 -84.6 126.4 -84.4 L 126.4 -84.4 L 126.4 -84.4 Q 128.7 -84.1 131 -84.1 L 131 -84.1 L 131 -84.1 Q 133.3 -84.1 135.3 -84.3 L 135.3 -84.3 L 135.3 -84.3 Q 137.3 -84.5 138.7 -84.5 L 138.7 -84.5 L 138.7 -84.5 Q 138.7 -84.1 138.4 -83.7 L 138.4 -83.7 L 138.4 -83.7 Q 138.1 -83.2 137.8 -82.8 L 137.8 -82.8 L 137.8 -82.8 Q 137.4 -82.4 137.1 -82.1 L 137.1 -82.1 L 137.1 -82.1 Q 136.7 -81.8 136.6 -81.7 L 136.6 -81.7 L 136.6 -81.7 Q 135.9 -81.6 134.5 -81.3 L 134.5 -81.3 L 134.5 -81.3 Q 133 -80.9 131.4 -80.7 L 131.4 -80.7 L 131.4 -80.7 Q 129.8 -80.4 128.4 -80.2 L 128.4 -80.2 L 128.4 -80.2 Q 127 -80.1 126.4 -80.1 L 126.4 -80.1 L 126.4 -80.1 Q 123.7 -79.5 121.7 -80.2 L 121.7 -80.2 L 121.7 -80.2 Q 119.7 -80.8 118.3 -82.3 L 118.3 -82.3 L 118.3 -82.3 Q 116.9 -83.8 116 -85.9 L 116 -85.9 L 116 -85.9 Q 115.1 -88.1 114.7 -90.5 L 114.7 -90.5 L 114.7 -90.5 Q 114.2 -93 114.2 -95.6 L 114.2 -95.6 L 114.2 -95.6 Q 114.1 -98.3 114.4 -100.7 Z M 127.1 -115.7 L 127.1 -115.7 L 127.1 -115.7 Q 126.4 -115.7 125.1 -114.9 L 125.1 -114.9 L 125.1 -114.9 Q 123.8 -114.1 122.7 -112.8 L 122.7 -112.8 L 122.7 -112.8 Q 121.6 -111.5 120.9 -110.1 L 120.9 -110.1 L 120.9 -110.1 Q 120.1 -108.6 120.4 -107.6 L 120.4 -107.6 L 120.4 -107.6 Q 122.7 -107.3 125.1 -107.7 L 125.1 -107.7 L 125.1 -107.7 Q 127.6 -108 129.6 -108.8 L 129.6 -108.8 L 129.6 -108.8 Q 131.6 -109.5 132.9 -110.5 L 132.9 -110.5 L 132.9 -110.5 Q 134.3 -111.5 134.2 -112.6 L 134.2 -112.6 L 134.2 -112.6 Q 134.2 -113.6 132.5 -114.5 L 132.5 -114.5 L 132.5 -114.5 Q 130.9 -115.3 127.1 -115.7 Z M 148.1 -87.2 L 148.1 -87.2 L 148.1 -87.2 Q 149.6 -87.2 151 -86.6 L 151 -86.6 L 151 -86.6 Q 152.4 -86 153.7 -85.2 L 153.7 -85.2 L 153.7 -85.2 Q 155 -84.5 156.4 -83.9 L 156.4 -83.9 L 156.4 -83.9 Q 157.7 -83.3 159.3 -83.3 L 159.3 -83.3 L 159.3 -83.3 Q 161.2 -83.3 163.1 -84 L 163.1 -84 L 163.1 -84 Q 165.1 -84.6 166.8 -85.8 L 166.8 -85.8 L 166.8 -85.8 Q 168.5 -87 169.5 -88.7 L 169.5 -88.7 L 169.5 -88.7 Q 170.6 -90.4 170.6 -92.5 L 170.6 -92.5 L 170.6 -92.5 Q 170.7 -93.1 170.6 -94 L 170.6 -94 L 170.6 -94 Q 170.6 -94.8 170 -95.8 L 170 -95.8 L 170 -95.8 Q 169.5 -96.7 168.3 -97.5 L 168.3 -97.5 L 168.3 -97.5 Q 167 -98.3 164.7 -98.8 L 164.7 -98.8 L 164.7 -98.8 Q 162.4 -99.2 158.9 -99.3 L 158.9 -99.3 L 158.9 -99.3 Q 155.4 -99.3 150.2 -98.6 L 150.2 -98.6 L 150.2 -98.6 Q 148.9 -98.6 147.6 -99.4 L 147.6 -99.4 L 147.6 -99.4 Q 146.4 -100.1 145.4 -101.2 L 145.4 -101.2 L 145.4 -101.2 Q 144.5 -102.3 143.8 -103.6 L 143.8 -103.6 L 143.8 -103.6 Q 143.2 -104.9 143.2 -106 L 143.2 -106 L 143.2 -106 Q 143.2 -109.4 144.7 -111.6 L 144.7 -111.6 L 144.7 -111.6 Q 146.1 -113.7 148.4 -115 L 148.4 -115 L 148.4 -115 Q 150.7 -116.3 153.5 -116.8 L 153.5 -116.8 L 153.5 -116.8 Q 156.3 -117.3 159.2 -117.3 L 159.2 -117.3 L 159.2 -117.3 Q 160.5 -117.3 162.3 -117.2 L 162.3 -117.2 L 162.3 -117.2 Q 164 -117.1 165.4 -116.5 L 165.4 -116.5 L 165.4 -116.5 Q 166.9 -115.9 167.9 -114.7 L 167.9 -114.7 L 167.9 -114.7 Q 168.9 -113.5 168.9 -111.3 L 168.9 -111.3 L 168.9 -111.3 Q 168.7 -109.8 168.4 -109.5 L 168.4 -109.5 L 168.4 -109.5 Q 168.1 -109.2 167.5 -109.6 L 167.5 -109.6 L 167.5 -109.6 Q 167 -110.1 166.2 -111 L 166.2 -111 L 166.2 -111 Q 165.4 -111.9 164.3 -112.7 L 164.3 -112.7 L 164.3 -112.7 Q 163.2 -113.6 161.6 -114 L 161.6 -114 L 161.6 -114 Q 160.1 -114.4 158.2 -114 L 158.2 -114 L 158.2 -114 Q 156.1 -114 154.1 -113.6 L 154.1 -113.6 L 154.1 -113.6 Q 152.1 -113.2 150.5 -112.2 L 150.5 -112.2 L 150.5 -112.2 Q 148.9 -111.3 147.8 -109.6 L 147.8 -109.6 L 147.8 -109.6 Q 146.8 -107.9 146.8 -105.4 L 146.8 -105.4 L 146.8 -105.4 Q 146.8 -104.1 148 -103.6 L 148 -103.6 L 148 -103.6 Q 149.2 -103.1 151.2 -103.1 L 151.2 -103.1 L 151.2 -103.1 Q 153.2 -103.1 155.7 -103.2 L 155.7 -103.2 L 155.7 -103.2 Q 158.2 -103.4 160.8 -103.4 L 160.8 -103.4 L 160.8 -103.4 Q 163.4 -103.4 165.9 -103 L 165.9 -103 L 165.9 -103 Q 168.4 -102.6 170.3 -101.4 L 170.3 -101.4 L 170.3 -101.4 Q 172.1 -100.2 173.2 -98 L 173.2 -98 L 173.2 -98 Q 174.3 -95.8 174 -92.3 L 174 -92.3 L 174 -92.3 Q 174 -89.7 172.5 -87.4 L 172.5 -87.4 L 172.5 -87.4 Q 171.1 -85.2 168.8 -83.4 L 168.8 -83.4 L 168.8 -83.4 Q 166.6 -81.7 163.9 -80.8 L 163.9 -80.8 L 163.9 -80.8 Q 161.2 -79.8 158.6 -80.1 L 158.6 -80.1 L 158.6 -80.1 Q 157.6 -80.2 155.8 -80.6 L 155.8 -80.6 L 155.8 -80.6 Q 154 -81.1 152.2 -82 L 152.2 -82 L 152.2 -82 Q 150.5 -82.9 149.3 -84.2 L 149.3 -84.2 L 149.3 -84.2 Q 148.1 -85.4 148.1 -87.2 Z M 199.4 -59.2 L 199.4 -59.2 L 199.4 -59.2 Q 199.4 -61.6 200.2 -62.8 L 200.2 -62.8 L 200.2 -62.8 Q 201 -64.1 203.9 -64.1 L 203.9 -64.1 L 203.9 -64.1 Q 203.6 -62.8 203.2 -61.6 L 203.2 -61.6 L 203.2 -61.6 Q 202.8 -60.4 202.5 -59.3 L 202.5 -59.3 L 202.5 -59.3 Q 202.2 -58.3 202.2 -57.7 L 202.2 -57.7 L 202.2 -57.7 Q 202.3 -57 202.9 -57.2 L 202.9 -57.2 L 202.9 -57.2 Q 205.7 -55.4 209.1 -54.6 L 209.1 -54.6 L 209.1 -54.6 Q 212.4 -53.8 215.7 -53.8 L 215.7 -53.8 L 215.7 -53.8 Q 220.6 -53.9 224.1 -55.8 L 224.1 -55.8 L 224.1 -55.8 Q 227.7 -57.7 230 -60.8 L 230 -60.8 L 230 -60.8 Q 232.3 -63.9 233.6 -67.9 L 233.6 -67.9 L 233.6 -67.9 Q 234.9 -71.9 235.2 -76.2 L 235.2 -76.2 L 235.2 -76.2 Q 235.5 -80.4 235 -84.7 L 235 -84.7 L 235 -84.7 Q 234.5 -89 233.3 -92.6 L 233.3 -92.6 L 233.3 -92.6 Q 231.8 -91 230.3 -89.1 L 230.3 -89.1 L 230.3 -89.1 Q 228.7 -87.3 227 -85.8 L 227 -85.8 L 227 -85.8 Q 225.2 -84.4 223.3 -83.4 L 223.3 -83.4 L 223.3 -83.4 Q 221.3 -82.4 218.8 -82.4 L 218.8 -82.4 L 218.8 -82.4 Q 216.3 -82.4 215 -83.3 L 215 -83.3 L 215 -83.3 Q 213.7 -84.2 213.3 -85.7 L 213.3 -85.7 L 213.3 -85.7 Q 212.8 -87.3 212.9 -89.3 L 212.9 -89.3 L 212.9 -89.3 Q 212.9 -91.3 212.9 -93.6 L 212.9 -93.6 L 212.9 -93.6 Q 212.9 -95.7 213.1 -98.3 L 213.1 -98.3 L 213.1 -98.3 Q 213.2 -101 213.7 -103.7 L 213.7 -103.7 L 213.7 -103.7 Q 214.2 -106.3 215 -108.9 L 215 -108.9 L 215 -108.9 Q 215.8 -111.5 217.2 -113.6 L 217.2 -113.6 L 217.2 -113.6 Q 218.6 -115.7 220.7 -116.9 L 220.7 -116.9 L 220.7 -116.9 Q 222.9 -118.1 225.8 -118.1 L 225.8 -118.1 L 225.8 -118.1 Q 227.6 -118.1 229.3 -117.8 L 229.3 -117.8 L 229.3 -117.8 Q 231 -117.5 232.5 -116.7 L 232.5 -116.7 L 232.5 -116.7 Q 233.9 -115.9 235 -114.6 L 235 -114.6 L 235 -114.6 Q 236 -113.3 236.7 -111.3 L 236.7 -111.3 L 236.7 -111.3 Q 237 -107.3 237.5 -102.7 L 237.5 -102.7 L 237.5 -102.7 Q 238.1 -98.1 238.4 -93.1 L 238.4 -93.1 L 238.4 -93.1 Q 238.8 -88.2 238.8 -83.1 L 238.8 -83.1 L 238.8 -83.1 Q 238.8 -78.1 238.1 -73.5 L 238.1 -73.5 L 238.1 -73.5 Q 237.4 -68.8 235.9 -64.7 L 235.9 -64.7 L 235.9 -64.7 Q 234.4 -60.6 231.6 -57.5 L 231.6 -57.5 L 231.6 -57.5 Q 228.8 -54.4 224.7 -52.5 L 224.7 -52.5 L 224.7 -52.5 Q 220.6 -50.6 214.8 -50.4 L 214.8 -50.4 L 214.8 -50.4 Q 212.3 -50.4 209.6 -50.8 L 209.6 -50.8 L 209.6 -50.8 Q 206.9 -51.1 204.6 -52 L 204.6 -52 L 204.6 -52 Q 202.3 -52.9 200.8 -54.6 L 200.8 -54.6 L 200.8 -54.6 Q 199.4 -56.3 199.4 -59.2 Z M 216.3 -93.6 L 216.3 -93.6 L 216.3 -93.6 Q 216.3 -92.6 216.2 -91.4 L 216.2 -91.4 L 216.2 -91.4 Q 216.1 -90.2 216.3 -88.9 L 216.3 -88.9 L 216.3 -88.9 Q 216.4 -87.7 217 -86.8 L 217 -86.8 L 217 -86.8 Q 217.6 -86 218.9 -85.9 L 218.9 -85.9 L 218.9 -85.9 Q 221 -85.9 222.8 -86.8 L 222.8 -86.8 L 222.8 -86.8 Q 224.6 -87.8 226.1 -89.5 L 226.1 -89.5 L 226.1 -89.5 Q 227.5 -91.1 228.6 -93.2 L 228.6 -93.2 L 228.6 -93.2 Q 229.7 -95.3 230.5 -97.5 L 230.5 -97.5 L 230.5 -97.5 Q 231.2 -99.7 231.6 -101.7 L 231.6 -101.7 L 231.6 -101.7 Q 232 -103.8 232 -105.4 L 232 -105.4 L 232 -105.4 Q 232.3 -107 232 -108.7 L 232 -108.7 L 232 -108.7 Q 231.8 -110.4 231 -111.7 L 231 -111.7 L 231 -111.7 Q 230.2 -113 228.9 -113.9 L 228.9 -113.9 L 228.9 -113.9 Q 227.6 -114.7 225.8 -114.7 L 225.8 -114.7 L 225.8 -114.7 Q 223.6 -114.7 222.1 -113.5 L 222.1 -113.5 L 222.1 -113.5 Q 220.5 -112.3 219.4 -110.5 L 219.4 -110.5 L 219.4 -110.5 Q 218.4 -108.6 217.8 -106.3 L 217.8 -106.3 L 217.8 -106.3 Q 217.1 -104 216.8 -101.6 L 216.8 -101.6 L 216.8 -101.6 Q 216.5 -99.3 216.4 -97.2 L 216.4 -97.2 L 216.4 -97.2 Q 216.3 -95 216.3 -93.6 Z M 243 -87.6 L 243 -87.6 L 243 -87.6 Q 243 -92.6 245.8 -94.9 L 245.8 -94.9 L 245.8 -94.9 Q 248.5 -97.2 253 -97.2 L 253 -97.2 L 253 -97.2 Q 254.8 -97.2 256.3 -97.1 L 256.3 -97.1 L 256.3 -97.1 Q 257.8 -97 259.2 -96.7 L 259.2 -96.7 L 259.2 -96.7 Q 260.7 -96.3 262 -95.6 L 262 -95.6 L 262 -95.6 Q 263.4 -94.9 264.9 -93.6 L 264.9 -93.6 L 264.9 -93.6 Q 264.9 -93.9 264.9 -94.7 L 264.9 -94.7 L 264.9 -94.7 Q 265 -95.5 265 -96.5 L 265 -96.5 L 265 -96.5 Q 265 -97.5 265 -98.3 L 265 -98.3 L 265 -98.3 Q 265 -99.1 265 -99.5 L 265 -99.5 L 265 -99.5 Q 264.9 -101.1 264.9 -103.6 L 264.9 -103.6 L 264.9 -103.6 Q 264.9 -106.1 264.5 -108.7 L 264.5 -108.7 L 264.5 -108.7 Q 264.1 -111.4 262.9 -113.7 L 262.9 -113.7 L 262.9 -113.7 Q 261.7 -116.1 259.1 -117.3 L 259.1 -117.3 L 259.1 -117.3 Q 257.2 -117.3 255.6 -116.7 L 255.6 -116.7 L 255.6 -116.7 Q 254.1 -116.1 252.5 -115.4 L 252.5 -115.4 L 252.5 -115.4 Q 250.9 -114.7 249.3 -114.1 L 249.3 -114.1 L 249.3 -114.1 Q 247.7 -113.6 245.9 -113.6 L 245.9 -113.6 L 245.9 -113.6 Q 245.9 -115.7 247.2 -117.2 L 247.2 -117.2 L 247.2 -117.2 Q 248.6 -118.6 250.5 -119.4 L 250.5 -119.4 L 250.5 -119.4 Q 252.5 -120.2 254.6 -120.5 L 254.6 -120.5 L 254.6 -120.5 Q 256.7 -120.8 258.3 -120.8 L 258.3 -120.8 L 258.3 -120.8 Q 259.9 -120.5 261.2 -120.1 L 261.2 -120.1 L 261.2 -120.1 Q 262.6 -119.8 263.8 -118.7 L 263.8 -118.7 L 263.8 -118.7 Q 265 -117.7 266 -115.5 L 266 -115.5 L 266 -115.5 Q 267 -113.4 267.7 -109.5 L 267.7 -109.5 L 267.7 -109.5 Q 268.5 -105.6 269 -99.7 L 269 -99.7 L 269 -99.7 Q 269.6 -93.8 270 -85.2 L 270 -85.2 L 270 -85.2 Q 270.1 -84 269.2 -83.2 L 269.2 -83.2 L 269.2 -83.2 Q 268.3 -82.4 266.7 -81.8 L 266.7 -81.8 L 266.7 -81.8 Q 265.1 -81.2 263.2 -80.8 L 263.2 -80.8 L 263.2 -80.8 Q 261.2 -80.4 259.2 -80.2 L 259.2 -80.2 L 259.2 -80.2 Q 257.1 -80.1 255.3 -80 L 255.3 -80 L 255.3 -80 Q 253.4 -79.9 252.2 -79.9 L 252.2 -79.9 L 252.2 -79.9 Q 250.6 -79.9 249 -80.4 L 249 -80.4 L 249 -80.4 Q 247.4 -80.9 246 -82 L 246 -82 L 246 -82 Q 244.7 -83 243.8 -84.4 L 243.8 -84.4 L 243.8 -84.4 Q 243 -85.9 243 -87.6 Z M 254.4 -93.8 L 254.4 -93.8 L 254.4 -93.8 Q 250 -92.5 248.3 -90.8 L 248.3 -90.8 L 248.3 -90.8 Q 246.5 -89.1 246.7 -87.5 L 246.7 -87.5 L 246.7 -87.5 Q 246.9 -86 248.8 -84.7 L 248.8 -84.7 L 248.8 -84.7 Q 250.6 -83.4 253.3 -83 L 253.3 -83 L 253.3 -83 Q 255.9 -82.6 259 -83.4 L 259 -83.4 L 259 -83.4 Q 262.1 -84.3 264.9 -86.7 L 264.9 -86.7 L 264.9 -86.7 Q 263.8 -89.3 262.8 -90.7 L 262.8 -90.7 L 262.8 -90.7 Q 261.7 -92 260.5 -92.7 L 260.5 -92.7 L 260.5 -92.7 Q 259.2 -93.4 257.7 -93.6 L 257.7 -93.6 L 257.7 -93.6 Q 256.3 -93.8 254.4 -93.8 Z M 275.6 -148.4 L 275.6 -148.4 L 275.6 -148.4 Q 276.8 -148.2 277.7 -147.7 L 277.7 -147.7 L 277.7 -147.7 Q 278.7 -147.2 279.2 -146 L 279.2 -146 L 279.2 -146 Q 279.2 -144.3 279.3 -141.4 L 279.3 -141.4 L 279.3 -141.4 Q 279.5 -138.4 279.6 -134.6 L 279.6 -134.6 L 279.6 -134.6 Q 279.7 -130.7 279.9 -126.2 L 279.9 -126.2 L 279.9 -126.2 Q 280.1 -121.7 280.2 -117.2 L 280.2 -117.2 L 280.2 -117.2 Q 280.4 -112.6 280.6 -108.1 L 280.6 -108.1 L 280.6 -108.1 Q 280.7 -103.6 280.8 -99.8 L 280.8 -99.8 L 280.8 -99.8 Q 281 -95.9 281 -92.9 L 281 -92.9 L 281 -92.9 Q 281.1 -89.9 281.2 -88.3 L 281.2 -88.3 L 281.2 -88.3 Q 281.2 -88.2 281.2 -87.7 L 281.2 -87.7 L 281.2 -87.7 Q 281.1 -87.3 281.1 -86.7 L 281.1 -86.7 L 281.1 -86.7 Q 281 -86 281 -85.5 L 281 -85.5 L 281 -85.5 Q 281 -84.9 281 -84.6 L 281 -84.6 L 281 -84.6 Q 280.9 -84.1 280.9 -83.4 L 280.9 -83.4 L 280.9 -83.4 Q 280.9 -82.6 280.7 -81.9 L 280.7 -81.9 L 280.7 -81.9 Q 280.5 -81.2 280.1 -80.6 L 280.1 -80.6 L 280.1 -80.6 Q 279.7 -80.1 278.8 -80 L 278.8 -80 L 277.3 -81.8 L 277.3 -81.8 Q 277.3 -81.9 277.1 -85.1 L 277.1 -85.1 L 277.1 -85.1 Q 277 -88.3 276.8 -93.5 L 276.8 -93.5 L 276.8 -93.5 Q 276.6 -98.6 276.4 -105.1 L 276.4 -105.1 L 276.4 -105.1 Q 276.2 -111.5 276 -118.1 L 276 -118.1 L 276 -118.1 Q 275.8 -124.7 275.6 -130.8 L 275.6 -130.8 L 275.6 -130.8 Q 275.4 -136.8 275.3 -141.2 L 275.3 -141.2 L 275.3 -141.2 Q 275.3 -141.6 275.4 -142.6 L 275.4 -142.6 L 275.4 -142.6 Q 275.4 -143.7 275.5 -144.8 L 275.5 -144.8 L 275.5 -144.8 Q 275.5 -145.9 275.5 -146.9 L 275.5 -146.9 L 275.5 -146.9 Q 275.6 -147.9 275.6 -148.4 Z M 288.3 -148.4 L 288.3 -148.4 L 288.3 -148.4 Q 289.6 -148.2 290.5 -147.7 L 290.5 -147.7 L 290.5 -147.7 Q 291.4 -147.2 291.9 -146 L 291.9 -146 L 291.9 -146 Q 291.9 -144.3 292.1 -141.4 L 292.1 -141.4 L 292.1 -141.4 Q 292.2 -138.4 292.3 -134.6 L 292.3 -134.6 L 292.3 -134.6 Q 292.5 -130.7 292.6 -126.2 L 292.6 -126.2 L 292.6 -126.2 Q 292.8 -121.7 293 -117.2 L 293 -117.2 L 293 -117.2 Q 293.2 -112.6 293.3 -108.1 L 293.3 -108.1 L 293.3 -108.1 Q 293.4 -103.6 293.6 -99.8 L 293.6 -99.8 L 293.6 -99.8 Q 293.7 -95.9 293.8 -92.9 L 293.8 -92.9 L 293.8 -92.9 Q 293.9 -89.9 294 -88.3 L 294 -88.3 L 294 -88.3 Q 294 -88.2 293.9 -87.7 L 293.9 -87.7 L 293.9 -87.7 Q 293.9 -87.3 293.8 -86.7 L 293.8 -86.7 L 293.8 -86.7 Q 293.8 -86 293.7 -85.5 L 293.7 -85.5 L 293.7 -85.5 Q 293.7 -84.9 293.7 -84.6 L 293.7 -84.6 L 293.7 -84.6 Q 293.6 -84.1 293.6 -83.4 L 293.6 -83.4 L 293.6 -83.4 Q 293.6 -82.6 293.4 -81.9 L 293.4 -81.9 L 293.4 -81.9 Q 293.3 -81.2 292.9 -80.6 L 292.9 -80.6 L 292.9 -80.6 Q 292.5 -80.1 291.6 -80 L 291.6 -80 L 290.1 -81.8 L 290.1 -81.8 Q 290 -81.9 289.9 -85.1 L 289.9 -85.1 L 289.9 -85.1 Q 289.7 -88.3 289.5 -93.5 L 289.5 -93.5 L 289.5 -93.5 Q 289.3 -98.6 289.1 -105.1 L 289.1 -105.1 L 289.1 -105.1 Q 289 -111.5 288.7 -118.1 L 288.7 -118.1 L 288.7 -118.1 Q 288.5 -124.7 288.3 -130.8 L 288.3 -130.8 L 288.3 -130.8 Q 288.2 -136.8 288.1 -141.2 L 288.1 -141.2 L 288.1 -141.2 Q 288.1 -141.6 288.1 -142.6 L 288.1 -142.6 L 288.1 -142.6 Q 288.2 -143.7 288.2 -144.8 L 288.2 -144.8 L 288.2 -144.8 Q 288.2 -145.9 288.3 -146.9 L 288.3 -146.9 L 288.3 -146.9 Q 288.3 -147.9 288.3 -148.4 Z M 299.5 -100.7 L 299.5 -100.7 L 299.5 -100.7 Q 299.5 -103.4 300.6 -106.6 L 300.6 -106.6 L 300.6 -106.6 Q 301.8 -109.8 303.8 -112.5 L 303.8 -112.5 L 303.8 -112.5 Q 305.7 -115.3 308.2 -117.2 L 308.2 -117.2 L 308.2 -117.2 Q 310.7 -119.1 313.5 -119.1 L 313.5 -119.1 L 313.5 -119.1 Q 315 -119.1 316.4 -118.5 L 316.4 -118.5 L 316.4 -118.5 Q 317.9 -117.9 319.2 -116.8 L 319.2 -116.8 L 319.2 -116.8 Q 320.6 -115.8 321.7 -114.6 L 321.7 -114.6 L 321.7 -114.6 Q 322.8 -113.3 323.4 -111.9 L 323.4 -111.9 L 323.4 -111.9 Q 324 -110.5 324.1 -109.2 L 324.1 -109.2 L 324.1 -109.2 Q 324.1 -107.8 323.3 -106.9 L 323.3 -106.9 L 304.8 -103.4 L 304.8 -103.4 Q 304.4 -103.4 304.2 -102.6 L 304.2 -102.6 L 304.2 -102.6 Q 303.9 -101.9 303.7 -100.7 L 303.7 -100.7 L 303.7 -100.7 Q 303.5 -99.6 303.4 -98.2 L 303.4 -98.2 L 303.4 -98.2 Q 303.3 -96.9 303.2 -95.6 L 303.2 -95.6 L 303.2 -95.6 Q 303.1 -94.3 303.1 -93.3 L 303.1 -93.3 L 303.1 -93.3 Q 303.1 -92.3 303.1 -91.8 L 303.1 -91.8 L 303.1 -91.8 Q 303.1 -89.3 304.3 -87.8 L 304.3 -87.8 L 304.3 -87.8 Q 305.5 -86.2 307.3 -85.4 L 307.3 -85.4 L 307.3 -85.4 Q 309.2 -84.6 311.5 -84.4 L 311.5 -84.4 L 311.5 -84.4 Q 313.8 -84.1 316.1 -84.1 L 316.1 -84.1 L 316.1 -84.1 Q 318.4 -84.1 320.4 -84.3 L 320.4 -84.3 L 320.4 -84.3 Q 322.4 -84.5 323.8 -84.5 L 323.8 -84.5 L 323.8 -84.5 Q 323.8 -84.1 323.5 -83.7 L 323.5 -83.7 L 323.5 -83.7 Q 323.2 -83.2 322.9 -82.8 L 322.9 -82.8 L 322.9 -82.8 Q 322.5 -82.4 322.2 -82.1 L 322.2 -82.1 L 322.2 -82.1 Q 321.8 -81.8 321.7 -81.7 L 321.7 -81.7 L 321.7 -81.7 Q 321 -81.6 319.6 -81.3 L 319.6 -81.3 L 319.6 -81.3 Q 318.1 -80.9 316.5 -80.7 L 316.5 -80.7 L 316.5 -80.7 Q 314.9 -80.4 313.5 -80.2 L 313.5 -80.2 L 313.5 -80.2 Q 312.1 -80.1 311.5 -80.1 L 311.5 -80.1 L 311.5 -80.1 Q 308.8 -79.5 306.8 -80.2 L 306.8 -80.2 L 306.8 -80.2 Q 304.8 -80.8 303.4 -82.3 L 303.4 -82.3 L 303.4 -82.3 Q 302 -83.8 301.1 -85.9 L 301.1 -85.9 L 301.1 -85.9 Q 300.2 -88.1 299.8 -90.5 L 299.8 -90.5 L 299.8 -90.5 Q 299.3 -93 299.3 -95.6 L 299.3 -95.6 L 299.3 -95.6 Q 299.2 -98.3 299.5 -100.7 Z M 312.2 -115.7 L 312.2 -115.7 L 312.2 -115.7 Q 311.5 -115.7 310.2 -114.9 L 310.2 -114.9 L 310.2 -114.9 Q 308.9 -114.1 307.8 -112.8 L 307.8 -112.8 L 307.8 -112.8 Q 306.7 -111.5 306 -110.1 L 306 -110.1 L 306 -110.1 Q 305.2 -108.6 305.5 -107.6 L 305.5 -107.6 L 305.5 -107.6 Q 307.8 -107.3 310.2 -107.7 L 310.2 -107.7 L 310.2 -107.7 Q 312.7 -108 314.7 -108.8 L 314.7 -108.8 L 314.7 -108.8 Q 316.7 -109.5 318 -110.5 L 318 -110.5 L 318 -110.5 Q 319.4 -111.5 319.3 -112.6 L 319.3 -112.6 L 319.3 -112.6 Q 319.3 -113.6 317.6 -114.5 L 317.6 -114.5 L 317.6 -114.5 Q 316 -115.3 312.2 -115.7 Z M 328 -114.3 L 328 -114.3 L 328 -114.3 Q 329 -114.8 329.8 -114.5 L 329.8 -114.5 L 329.8 -114.5 Q 330.6 -114.3 331.1 -113.6 L 331.1 -113.6 L 331.1 -113.6 Q 331.7 -112.8 331.9 -111.9 L 331.9 -111.9 L 331.9 -111.9 Q 332.2 -111 332.4 -110.1 L 332.4 -110.1 L 332.4 -110.1 Q 333.5 -112.1 335.7 -113.2 L 335.7 -113.2 L 335.7 -113.2 Q 337.8 -114.4 340.3 -114.8 L 340.3 -114.8 L 340.3 -114.8 Q 342.7 -115.2 345.2 -115 L 345.2 -115 L 345.2 -115 Q 347.7 -114.8 349.4 -113.9 L 349.4 -113.9 L 349.4 -113.9 Q 351.1 -113.1 351.8 -111.7 L 351.8 -111.7 L 351.8 -111.7 Q 352.5 -110.2 351.4 -108.3 L 351.4 -108.3 L 351.4 -108.3 Q 349.2 -109.6 346.7 -110.4 L 346.7 -110.4 L 346.7 -110.4 Q 344.1 -111.2 341.8 -110.9 L 341.8 -110.9 L 341.8 -110.9 Q 339.4 -110.7 337.4 -109.1 L 337.4 -109.1 L 337.4 -109.1 Q 335.4 -107.6 334 -104.2 L 334 -104.2 L 334 -104.2 Q 332.7 -100.9 332.4 -95.4 L 332.4 -95.4 L 332.4 -95.4 Q 332.1 -89.9 333.2 -81.7 L 333.2 -81.7 L 329.8 -81.7 L 329.8 -81.7 Q 329.8 -81.7 329.7 -83.2 L 329.7 -83.2 L 329.7 -83.2 Q 329.6 -84.6 329.4 -87 L 329.4 -87 L 329.4 -87 Q 329.3 -89.4 329.1 -92.3 L 329.1 -92.3 L 329.1 -92.3 Q 328.9 -95.2 328.7 -98.2 L 328.7 -98.2 L 328.7 -98.2 Q 328.5 -101.2 328.4 -103.9 L 328.4 -103.9 L 328.4 -103.9 Q 328.2 -106.7 328.1 -108.7 L 328.1 -108.7 L 328.1 -108.7 Q 328.1 -109 328 -109.8 L 328 -109.8 L 328 -109.8 Q 328 -110.6 328 -111.5 L 328 -111.5 L 328 -111.5 Q 328 -112.4 328 -113.2 L 328 -113.2 L 328 -113.2 Q 328 -114 328 -114.3 Z M 376.5 -43.8 L 372.5 -44 L 372.5 -44 Q 372.5 -48.4 373.3 -53.1 L 373.3 -53.1 L 373.3 -53.1 Q 374.1 -57.7 375 -62.4 L 375 -62.4 L 375 -62.4 Q 375.8 -67.1 376.4 -71.7 L 376.4 -71.7 L 376.4 -71.7 Q 376.9 -76.4 376.5 -80.9 L 376.5 -80.9 L 354.6 -117.9 L 354.6 -117.9 Q 356.5 -119.7 357.7 -119.9 L 357.7 -119.9 L 357.7 -119.9 Q 358.8 -120.1 359 -120 L 359 -120 L 359 -120 Q 359.6 -119.1 361.1 -116.7 L 361.1 -116.7 L 361.1 -116.7 Q 362.5 -114.3 364.4 -111.2 L 364.4 -111.2 L 364.4 -111.2 Q 366.3 -108 368.4 -104.5 L 368.4 -104.5 L 368.4 -104.5 Q 370.5 -101 372.4 -97.8 L 372.4 -97.8 L 372.4 -97.8 Q 374.3 -94.7 375.7 -92.2 L 375.7 -92.2 L 375.7 -92.2 Q 377 -89.7 377.5 -88.8 L 377.5 -88.8 L 381.6 -121.4 L 386 -119.2 L 376.5 -43.8 Z" fill="#444444"></path></g></g><style>text {
  font-size: 64px;
  font-family: Arial Black;
  dominant-baseline: central;
  text-anchor: middle;
}</style></svg>